<svg xmlns="http://www.w3.org/2000/svg" width="640" height="360" viewBox="0 0 640 360">
  <defs>
    <linearGradient id="gradBirthday" x1="0%" y1="0%" x2="100%" y2="100%">
      <stop offset="0%" stop-color="#f687b3"/>
      <stop offset="100%" stop-color="#ed64a6"/>
    </linearGradient>
  </defs>
  <rect width="640" height="360" fill="url(#gradBirthday)" rx="32"/>
  <g opacity="0.25" fill="#fff">
    <circle cx="150" cy="80" r="60"/>
    <circle cx="500" cy="90" r="70"/>
    <circle cx="320" cy="300" r="100"/>
  </g>
  <g>
    <path d="M140 230h360l-30 70H170z" fill="rgba(255,255,255,0.35)"/>
    <rect x="220" y="150" width="200" height="130" rx="24" fill="rgba(255,255,255,0.85)"/>
    <rect x="250" y="180" width="140" height="70" rx="18" fill="#fff5f7"/>
    <circle cx="320" cy="170" r="25" fill="#fbb6ce"/>
    <path d="M320 135l8 25h-16z" fill="#f56565"/>
  </g>
  <g stroke="#fff" stroke-width="4" fill="none" opacity="0.4">
    <path d="M120 120l20-30 20 30"/>
    <path d="M440 120l20-30 20 30"/>
    <path d="M280 110l20-30 20 30"/>
  </g>
  <text x="50%" y="70" font-family="'Noto Sans KR', 'Malgun Gothic', sans-serif" font-size="40" fill="#fff" text-anchor="middle" font-weight="700">친구의 생일</text>
  <text x="50%" y="110" font-family="'Montserrat', sans-serif" font-size="22" fill="#fff5f7" text-anchor="middle">Birthday Surprise • 파티</text>
</svg>
