<svg xmlns="http://www.w3.org/2000/svg" width="640" height="360" viewBox="0 0 640 360">
  <defs>
    <linearGradient id="gradCampus" x1="0%" y1="0%" x2="100%" y2="100%">
      <stop offset="0%" stop-color="#7f9cf5"/>
      <stop offset="100%" stop-color="#5a67d8"/>
    </linearGradient>
  </defs>
  <rect width="640" height="360" fill="url(#gradCampus)" rx="32"/>
  <g opacity="0.15" fill="#fff">
    <circle cx="120" cy="80" r="70"/>
    <circle cx="540" cy="100" r="90"/>
    <circle cx="360" cy="300" r="110"/>
  </g>
  <g fill="#fefcbf" opacity="0.6">
    <path d="M100 220h440v18H100z"/>
    <path d="M160 180h320v14H160z"/>
    <rect x="210" y="150" width="220" height="16" rx="8"/>
  </g>
  <g fill="#2d3748">
    <rect x="180" y="140" width="280" height="140" rx="18" fill="#f7fafc" opacity="0.92"/>
    <rect x="195" y="155" width="250" height="100" rx="14" fill="#edf2f7"/>
    <rect x="225" y="190" width="190" height="16" rx="8" fill="#a3bffa"/>
    <rect x="225" y="215" width="160" height="12" rx="6" fill="#c3dafe"/>
    <circle cx="320" cy="248" r="16" fill="#7f9cf5"/>
  </g>
  <text x="50%" y="70" font-family="'Noto Sans KR', 'Malgun Gothic', sans-serif" font-size="40" fill="#ffffff" text-anchor="middle" font-weight="700">대학교에서의 하루</text>
  <text x="50%" y="110" font-family="'Montserrat', sans-serif" font-size="24" fill="#fdf6ff" text-anchor="middle">Campus Life • 공부와 친구들</text>
</svg>
