<svg xmlns="http://www.w3.org/2000/svg" width="640" height="360" viewBox="0 0 640 360">
  <defs>
    <linearGradient id="gradBBQ" x1="0%" y1="0%" x2="100%" y2="100%">
      <stop offset="0%" stop-color="#ed8936"/>
      <stop offset="100%" stop-color="#dd6b20"/>
    </linearGradient>
  </defs>
  <rect width="640" height="360" fill="#2d3748" rx="32"/>
  <g opacity="0.15" fill="#fff">
    <circle cx="120" cy="80" r="60"/>
    <circle cx="520" cy="90" r="70"/>
    <circle cx="320" cy="300" r="110"/>
  </g>
  <g transform="translate(160 100)">
    <ellipse cx="160" cy="160" rx="200" ry="90" fill="rgba(0,0,0,0.5)"/>
    <ellipse cx="160" cy="150" rx="150" ry="60" fill="#1a202c"/>
    <ellipse cx="160" cy="150" rx="120" ry="45" fill="#2d3748"/>
    <path d="M60 150q40-30 80 0t80 0 80 0" stroke="#ed8936" stroke-width="12" fill="none" stroke-linecap="round" opacity="0.85"/>
    <path d="M80 130q30-25 60 0t60 0 60 0" stroke="#f6ad55" stroke-width="8" fill="none" stroke-linecap="round" opacity="0.8"/>
    <circle cx="150" cy="140" r="18" fill="#f56565"/>
    <circle cx="200" cy="150" r="16" fill="#f6ad55"/>
    <circle cx="230" cy="140" r="12" fill="#68d391"/>
  </g>
  <text x="50%" y="70" font-family="'Noto Sans KR', 'Malgun Gothic', sans-serif" font-size="38" fill="#fbd38d" text-anchor="middle" font-weight="700">한국식 바비큐</text>
  <text x="50%" y="110" font-family="'Montserrat', sans-serif" font-size="22" fill="#fed7aa" text-anchor="middle">Korean BBQ Night • 삼겹살</text>
</svg>
