<svg xmlns="http://www.w3.org/2000/svg" width="640" height="360" viewBox="0 0 640 360">
  <defs>
    <linearGradient id="gradRamyeon" x1="0%" y1="0%" x2="100%" y2="100%">
      <stop offset="0%" stop-color="#f6ad55"/>
      <stop offset="100%" stop-color="#e53e3e"/>
    </linearGradient>
  </defs>
  <rect width="640" height="360" fill="url(#gradRamyeon)" rx="32"/>
  <g opacity="0.2" fill="#fff">
    <circle cx="140" cy="90" r="60"/>
    <circle cx="500" cy="70" r="70"/>
    <circle cx="320" cy="300" r="110"/>
  </g>
  <g transform="translate(180 120)">
    <ellipse cx="140" cy="150" rx="160" ry="70" fill="rgba(255,255,255,0.4)"/>
    <ellipse cx="140" cy="130" rx="120" ry="50" fill="#fffaf0" opacity="0.9"/>
    <path d="M40 120q40-40 80 0t80 0 80 0" stroke="#fbd38d" stroke-width="10" fill="none" stroke-linecap="round"/>
    <path d="M60 100q30-30 60 0t60 0 60 0" stroke="#f6ad55" stroke-width="6" fill="none" stroke-linecap="round"/>
    <circle cx="120" cy="120" r="16" fill="#f56565"/>
    <circle cx="160" cy="118" r="18" fill="#ecc94b"/>
    <circle cx="200" cy="125" r="12" fill="#48bb78"/>
  </g>
  <text x="50%" y="70" font-family="'Noto Sans KR', 'Malgun Gothic', sans-serif" font-size="38" fill="#fff5f7" text-anchor="middle" font-weight="700">라면 끓이기</text>
  <text x="50%" y="110" font-family="'Montserrat', sans-serif" font-size="22" fill="#fff5f7" text-anchor="middle">Ramyeon Recipe • 따뜻한 한 끼</text>
</svg>
