<svg xmlns="http://www.w3.org/2000/svg" width="640" height="360" viewBox="0 0 640 360">
  <defs>
    <linearGradient id="sky" x1="0%" y1="0%" x2="0%" y2="100%">
      <stop offset="0%" stop-color="#90cdf4"/>
      <stop offset="100%" stop-color="#bee3f8"/>
    </linearGradient>
    <linearGradient id="ground" x1="0%" y1="0%" x2="0%" y2="100%">
      <stop offset="0%" stop-color="#68d391"/>
      <stop offset="100%" stop-color="#38a169"/>
    </linearGradient>
  </defs>
  <rect width="640" height="360" fill="url(#sky)" rx="32"/>
  <path d="M0 220h640v140H0z" fill="url(#ground)"/>
  <g opacity="0.25" fill="#fff">
    <circle cx="120" cy="90" r="60"/>
    <circle cx="520" cy="70" r="50"/>
  </g>
  <g transform="translate(120 80)" fill="none" stroke-width="16">
    <path d="M0 180a180 180 0 0 1 360 0" stroke="#f56565"/>
    <path d="M20 180a160 160 0 0 1 320 0" stroke="#f6ad55"/>
    <path d="M40 180a140 140 0 0 1 280 0" stroke="#faf089"/>
    <path d="M60 180a120 120 0 0 1 240 0" stroke="#48bb78"/>
    <path d="M80 180a100 100 0 0 1 200 0" stroke="#4299e1"/>
    <path d="M100 180a80 80 0 0 1 160 0" stroke="#9f7aea"/>
  </g>
  <text x="50%" y="70" font-family="'Noto Sans KR', 'Malgun Gothic', sans-serif" font-size="36" fill="#2b6cb0" text-anchor="middle" font-weight="700">비 온 뒤 무지개</text>
  <text x="50%" y="110" font-family="'Montserrat', sans-serif" font-size="22" fill="#2c5282" text-anchor="middle">Rainbow Science • 빛</text>
</svg>
