<svg xmlns="http://www.w3.org/2000/svg" width="640" height="360" viewBox="0 0 640 360">
  <defs>
    <linearGradient id="gradSea" x1="0%" y1="0%" x2="0%" y2="100%">
      <stop offset="0%" stop-color="#3182ce"/>
      <stop offset="100%" stop-color="#2c5282"/>
    </linearGradient>
    <linearGradient id="gradSun" x1="0%" y1="0%" x2="0%" y2="100%">
      <stop offset="0%" stop-color="#fbd38d"/>
      <stop offset="100%" stop-color="#f6ad55"/>
    </linearGradient>
  </defs>
  <rect width="640" height="360" fill="#90cdf4" rx="32"/>
  <circle cx="500" cy="100" r="60" fill="url(#gradSun)" opacity="0.85"/>
  <path d="M0 200c80-30 160-30 240 0s160 30 240 0 160-30 160 0v160H0z" fill="url(#gradSea)"/>
  <path d="M0 220c80-20 160-20 240 0s160 20 240 0 160-20 160 0" fill="rgba(255,255,255,0.2)"/>
  <path d="M60 250c60-18 120-18 180 0s120 18 180 0 120-18 180 0" fill="rgba(255,255,255,0.25)"/>
  <g fill="#fefcbf" opacity="0.85">
    <rect x="100" y="120" width="120" height="60" rx="18"/>
    <rect x="360" y="130" width="140" height="50" rx="18"/>
  </g>
  <text x="50%" y="70" font-family="'Noto Sans KR', 'Malgun Gothic', sans-serif" font-size="38" fill="#234e70" text-anchor="middle" font-weight="700">부산 여행</text>
  <text x="50%" y="110" font-family="'Montserrat', sans-serif" font-size="22" fill="#1a365d" text-anchor="middle">Busan Coastline • 해운대</text>
</svg>
