<svg xmlns="http://www.w3.org/2000/svg" width="640" height="360" viewBox="0 0 640 360">
  <defs>
    <linearGradient id="gradLostPhone" x1="0%" y1="0%" x2="100%" y2="100%">
      <stop offset="0%" stop-color="#63b3ed"/>
      <stop offset="100%" stop-color="#3182ce"/>
    </linearGradient>
  </defs>
  <rect width="640" height="360" fill="url(#gradLostPhone)" rx="32"/>
  <g opacity="0.2" stroke="#fff" stroke-width="3" fill="none">
    <circle cx="160" cy="90" r="60"/>
    <circle cx="500" cy="120" r="80"/>
    <path d="M80 280c40-50 120-80 200-30s140 30 200-10 100-20 140 0"/>
  </g>
  <g transform="translate(210 80)">
    <rect x="0" y="0" width="220" height="200" rx="36" fill="#1a202c" opacity="0.7"/>
    <rect x="20" y="20" width="180" height="160" rx="24" fill="#2d3748"/>
    <rect x="35" y="35" width="150" height="110" rx="18" fill="#e2e8f0"/>
    <circle cx="110" cy="170" r="12" fill="#a0aec0"/>
    <rect x="85" y="10" width="50" height="6" rx="3" fill="#4a5568"/>
  </g>
  <text x="50%" y="70" font-family="'Noto Sans KR', 'Malgun Gothic', sans-serif" font-size="38" fill="#ebf8ff" text-anchor="middle" font-weight="700">잃어버린 휴대폰</text>
  <text x="50%" y="110" font-family="'Montserrat', sans-serif" font-size="22" fill="#ebf4ff" text-anchor="middle">Lost Phone Adventure</text>
</svg>
